<svg width="24" height="24" viewBox="0 0 24 24" fill="none" xmlns="http://www.w3.org/2000/svg">
<path fill-rule="evenodd" clip-rule="evenodd" d="M14.6187 2.38128C14.277 2.03957 13.723 2.03957 13.3813 2.38128L7.16791 8.59465C6.53691 9.2256 6.00197 9.76049 5.63278 10.2444C5.24006 10.7591 4.95343 11.3175 4.95343 12C4.95343 12.6825 5.24007 13.2409 5.63278 13.7556C6.00197 14.2395 6.53691 14.7744 7.16792 15.4054L13.3813 21.6187C13.723 21.9604 14.277 21.9604 14.6187 21.6187C14.9604 21.277 14.9604 20.723 14.6187 20.3813L8.44715 14.2097C7.76299 13.5256 7.31343 13.0734 7.02407 12.6941C6.75012 12.3351 6.70343 12.146 6.70343 12C6.70343 11.854 6.75012 11.6649 7.02407 11.3059C7.31342 10.9266 7.76299 10.4745 8.44714 9.79029L14.6187 3.61872C14.9604 3.27701 14.9604 2.72299 14.6187 2.38128Z" fill="white"/>
</svg>
