<svg width="24" height="24" viewBox="0 0 24 24" fill="none" xmlns="http://www.w3.org/2000/svg">
<path fill-rule="evenodd" clip-rule="evenodd" d="M9.38128 2.38128C9.72299 2.03957 10.277 2.03957 10.6187 2.38128L16.8321 8.59465C17.4631 9.2256 17.998 9.76049 18.3672 10.2444C18.7599 10.7591 19.0466 11.3175 19.0466 12C19.0466 12.6825 18.7599 13.2409 18.3672 13.7556C17.998 14.2395 17.4631 14.7744 16.8321 15.4054L10.6187 21.6187C10.277 21.9604 9.72299 21.9604 9.38128 21.6187C9.03957 21.277 9.03957 20.723 9.38128 20.3813L15.5529 14.2097C16.237 13.5256 16.6866 13.0734 16.9759 12.6941C17.2499 12.3351 17.2966 12.146 17.2966 12C17.2966 11.854 17.2499 11.6649 16.9759 11.3059C16.6866 10.9266 16.237 10.4745 15.5529 9.79029L9.38128 3.61872C9.03957 3.27701 9.03957 2.72299 9.38128 2.38128Z" fill="white"/>
</svg>
