<svg width="24" height="24" viewBox="0 0 24 24" fill="none" xmlns="http://www.w3.org/2000/svg">
<path d="M4.88128 6.11872C4.53957 5.77701 4.53957 5.22299 4.88128 4.88128C5.22299 4.53957 5.77701 4.53957 6.11872 4.88128L12 10.7626L17.8813 4.88128C18.223 4.53957 18.777 4.53957 19.1187 4.88128C19.4604 5.22299 19.4604 5.77701 19.1187 6.11872L13.2374 12L19.1187 17.8813C19.4604 18.223 19.4604 18.777 19.1187 19.1187C18.777 19.4604 18.223 19.4604 17.8813 19.1187L12 13.2374L6.11872 19.1187C5.77701 19.4604 5.22299 19.4604 4.88128 19.1187C4.53957 18.777 4.53957 18.223 4.88128 17.8813L10.7626 12L4.88128 6.11872Z" fill="white"/>
</svg>
