<svg width="24" height="24" viewBox="0 0 24 24" fill="none" xmlns="http://www.w3.org/2000/svg">
<path d="M10.586 12.4139L5.29288 17.7073C4.90236 18.0978 4.90238 18.731 5.29291 19.1215C5.68344 19.512 6.3166 19.512 6.70712 19.1215L12.0002 13.8282L17.2933 19.1215C17.6838 19.512 18.317 19.512 18.7075 19.1215C19.0981 18.731 19.0981 18.0978 18.7076 17.7073L13.4144 12.4139L18.707 7.12116C19.0975 6.73062 19.0975 6.09746 18.7069 5.70694C18.3164 5.31643 17.6832 5.31644 17.2927 5.70697L12.0002 10.9997L6.70772 5.70697C6.3172 5.31644 5.68404 5.31643 5.29351 5.70694C4.90297 6.09746 4.90296 6.73062 5.29348 7.12116L10.586 12.4139Z" fill="white"/>
</svg>
