<svg width="48" height="24" viewBox="0 0 48 24" fill="none" xmlns="http://www.w3.org/2000/svg">
<g clip-path="url(#clip0_43_312)">
<path fill-rule="evenodd" clip-rule="evenodd" d="M12 9.47466L10.7626 8.23725C8.65795 6.13267 6.83271 5.72973 5.634 5.94813C4.4431 6.16511 3.42642 7.06799 2.99222 8.55345C2.17127 11.362 3.56429 16.7907 12 21.052C20.4357 16.7907 21.8287 11.3619 21.0078 8.55341C20.5736 7.06794 19.5569 6.16507 18.366 5.94809C17.1673 5.72969 15.3421 6.13264 13.2374 8.23724L12 9.47466ZM12 23C-7 14 2.5 -2.5 12 6.9998C21.5 -2.50009 31 14 12 23Z" fill="white"/>
<path fill-rule="evenodd" clip-rule="evenodd" d="M28.9606 9.47493C29.3161 9.49919 29.7806 9.5 30.5 9.5C31.2194 9.5 31.6839 9.49919 32.0394 9.47493C32.3814 9.4516 32.5116 9.41167 32.574 9.38582C32.9416 9.23358 33.2336 8.94157 33.3858 8.57403C33.4117 8.5116 33.4516 8.38136 33.4749 8.03936C33.4992 7.68389 33.5 7.21944 33.5 6.5C33.5 5.78056 33.4992 5.31611 33.4749 4.96064C33.4516 4.61864 33.4117 4.4884 33.3858 4.42597C33.2336 4.05843 32.9416 3.76642 32.574 3.61418C32.5116 3.58833 32.3814 3.5484 32.0394 3.52507C31.6839 3.50081 31.2194 3.5 30.5 3.5C29.7806 3.5 29.3161 3.50081 28.9606 3.52507C28.6186 3.5484 28.4884 3.58833 28.426 3.61418C28.0584 3.76642 27.7664 4.05843 27.6142 4.42597C27.5883 4.4884 27.5484 4.61864 27.5251 4.96064C27.5008 5.31611 27.5 5.78056 27.5 6.5C27.5 7.21944 27.5008 7.68389 27.5251 8.03936C27.5484 8.38136 27.5883 8.5116 27.6142 8.57403C27.7664 8.94157 28.0584 9.23358 28.426 9.38582C28.4884 9.41167 28.6186 9.4516 28.9606 9.47493ZM26.2284 3.85195C26 4.40326 26 5.10218 26 6.5C26 7.89782 26 8.59674 26.2284 9.14805C26.5328 9.88313 27.1169 10.4672 27.8519 10.7716C28.4033 11 29.1022 11 30.5 11C31.8978 11 32.5967 11 33.1481 10.7716C33.8831 10.4672 34.4672 9.88313 34.7716 9.14805C35 8.59674 35 7.89782 35 6.5C35 5.10218 35 4.40326 34.7716 3.85195C34.4672 3.11687 33.8831 2.53284 33.1481 2.22836C32.5967 2 31.8978 2 30.5 2C29.1022 2 28.4033 2 27.8519 2.22836C27.1169 2.53284 26.5328 3.11687 26.2284 3.85195Z" fill="white"/>
<path fill-rule="evenodd" clip-rule="evenodd" d="M28.9606 20.4749C29.3161 20.4992 29.7806 20.5 30.5 20.5C31.2194 20.5 31.6839 20.4992 32.0394 20.4749C32.3814 20.4516 32.5116 20.4117 32.574 20.3858C32.9416 20.2336 33.2336 19.9416 33.3858 19.574C33.4117 19.5116 33.4516 19.3814 33.4749 19.0394C33.4992 18.6839 33.5 18.2194 33.5 17.5C33.5 16.7806 33.4992 16.3161 33.4749 15.9606C33.4516 15.6186 33.4117 15.4884 33.3858 15.426C33.2336 15.0584 32.9416 14.7664 32.574 14.6142C32.5116 14.5883 32.3814 14.5484 32.0394 14.5251C31.6839 14.5008 31.2194 14.5 30.5 14.5C29.7806 14.5 29.3161 14.5008 28.9606 14.5251C28.6186 14.5484 28.4884 14.5883 28.426 14.6142C28.0584 14.7664 27.7664 15.0584 27.6142 15.426C27.5883 15.4884 27.5484 15.6186 27.5251 15.9606C27.5008 16.3161 27.5 16.7806 27.5 17.5C27.5 18.2194 27.5008 18.6839 27.5251 19.0394C27.5484 19.3814 27.5883 19.5116 27.6142 19.574C27.7664 19.9416 28.0584 20.2336 28.426 20.3858C28.4884 20.4117 28.6186 20.4516 28.9606 20.4749ZM26.2284 14.8519C26 15.4033 26 16.1022 26 17.5C26 18.8978 26 19.5967 26.2284 20.1481C26.5328 20.8831 27.1169 21.4672 27.8519 21.7716C28.4033 22 29.1022 22 30.5 22C31.8978 22 32.5967 22 33.1481 21.7716C33.8831 21.4672 34.4672 20.8831 34.7716 20.1481C35 19.5967 35 18.8978 35 17.5C35 16.1022 35 15.4033 34.7716 14.8519C34.4672 14.1169 33.8831 13.5328 33.1481 13.2284C32.5967 13 31.8978 13 30.5 13C29.1022 13 28.4033 13 27.8519 13.2284C27.1169 13.5328 26.5328 14.1169 26.2284 14.8519Z" fill="white"/>
<path fill-rule="evenodd" clip-rule="evenodd" d="M39.9606 20.4749C40.3161 20.4992 40.7806 20.5 41.5 20.5C42.2194 20.5 42.6839 20.4992 43.0394 20.4749C43.3814 20.4516 43.5116 20.4117 43.574 20.3858C43.9416 20.2336 44.2336 19.9416 44.3858 19.574C44.4117 19.5116 44.4516 19.3814 44.4749 19.0394C44.4992 18.6839 44.5 18.2194 44.5 17.5C44.5 16.7806 44.4992 16.3161 44.4749 15.9606C44.4516 15.6186 44.4117 15.4884 44.3858 15.426C44.2336 15.0584 43.9416 14.7664 43.574 14.6142C43.5116 14.5883 43.3814 14.5484 43.0394 14.5251C42.6839 14.5008 42.2194 14.5 41.5 14.5C40.7806 14.5 40.3161 14.5008 39.9606 14.5251C39.6186 14.5484 39.4884 14.5883 39.426 14.6142C39.0584 14.7664 38.7664 15.0584 38.6142 15.426C38.5883 15.4884 38.5484 15.6186 38.5251 15.9606C38.5008 16.3161 38.5 16.7806 38.5 17.5C38.5 18.2194 38.5008 18.6839 38.5251 19.0394C38.5484 19.3814 38.5883 19.5116 38.6142 19.574C38.7664 19.9416 39.0584 20.2336 39.426 20.3858C39.4884 20.4117 39.6186 20.4516 39.9606 20.4749ZM37.2284 14.8519C37 15.4033 37 16.1022 37 17.5C37 18.8978 37 19.5967 37.2284 20.1481C37.5328 20.8831 38.1169 21.4672 38.8519 21.7716C39.4033 22 40.1022 22 41.5 22C42.8978 22 43.5967 22 44.1481 21.7716C44.8831 21.4672 45.4672 20.8831 45.7716 20.1481C46 19.5967 46 18.8978 46 17.5C46 16.1022 46 15.4033 45.7716 14.8519C45.4672 14.1169 44.8831 13.5328 44.1481 13.2284C43.5967 13 42.8978 13 41.5 13C40.1022 13 39.4033 13 38.8519 13.2284C38.1169 13.5328 37.5328 14.1169 37.2284 14.8519Z" fill="white"/>
</g>
<defs>
<clipPath id="clip0_43_312">
<rect width="48" height="24" fill="white"/>
</clipPath>
</defs>
</svg>
