<svg width="760" height="232" viewBox="0 0 760 232" fill="none" xmlns="http://www.w3.org/2000/svg">
<path fill-rule="evenodd" clip-rule="evenodd" d="M478.826 181.166C457.717 174.473 425.795 176.017 421.676 196.612C446.904 194.038 464.41 189.919 478.311 183.225C478.311 182.196 478.311 181.681 478.826 181.166ZM497.361 168.809C505.084 160.571 511.263 150.789 517.441 137.917C509.718 148.214 502.51 159.027 497.361 168.809ZM550.907 97.2427C549.637 104.675 524.134 171.383 490.668 193.523C493.242 202.275 505.084 204.85 532.887 196.097C544.214 192.493 553.997 185.8 563.264 178.077C569.443 168.809 577.68 160.056 585.403 156.967C604.968 149.244 595.186 171.898 570.472 190.433C567.898 194.038 566.353 197.642 566.353 199.701C576.651 203.305 610.117 185.8 620.929 165.72C626.078 155.937 643.068 126.59 659.029 143.581C661.089 146.155 662.633 156.452 665.208 163.146C690.436 146.67 708.971 144.096 697.644 156.967C680.654 176.017 670.871 181.681 663.148 176.017C659.544 178.592 656.455 181.681 652.851 184.255C659.029 187.859 664.178 193.008 668.812 199.701C696.1 243.465 803.707 159.027 733.17 155.423C732.655 155.423 732.655 155.937 732.655 156.452C732.655 155.937 732.14 154.908 733.17 154.908C809.37 153.878 702.278 250.673 666.237 206.909C659.029 198.156 652.336 193.008 646.672 189.919C622.474 210.513 600.849 228.019 609.602 200.731C610.632 198.156 611.662 195.582 612.691 193.523C611.662 194.038 610.632 194.552 609.602 195.582C568.928 219.266 555.541 213.602 555.541 200.216C546.274 205.365 535.461 209.483 524.134 211.543C494.787 216.692 481.4 211.543 477.796 200.731C476.767 201.246 475.737 201.76 474.707 202.275C361.437 252.217 400.052 137.402 485.005 165.72C498.391 137.917 526.999 100.556 533.917 95.1833C540.834 89.8104 552.178 89.8104 550.907 97.2427ZM624.018 182.71C629.682 180.136 636.375 179.106 643.068 180.651C648.217 176.017 652.851 172.413 657.999 168.809C655.94 164.69 653.366 158.512 651.306 151.819C633.801 148.729 635.86 166.75 624.018 182.71ZM635.86 187.344C622.989 186.829 615.78 198.671 615.266 206.394C621.444 202.79 630.712 191.978 634.83 187.859L635.86 187.344Z" fill="black"/>
<path fill-rule="evenodd" clip-rule="evenodd" d="M68.6048 0.489245C62.9564 -1.24873 56.7423 1.76571 54.9484 7.59582C54.9432 7.61282 54.9381 7.62986 54.9331 7.64694C46.3476 37.1425 40.2525 66.8083 34.2111 96.2136L34.1975 96.2795C27.099 130.83 20.0713 165.017 9.15477 198.569C7.066 204.98 5.94139 208.306 5.32405 210.052C5.01327 210.932 4.84585 211.368 4.75851 211.581C4.74679 211.609 4.73751 211.631 4.7305 211.648C4.45495 212.13 4.30361 212.632 4.16183 213.103L4.13579 213.189C3.94002 213.837 3.59546 215.015 2.95404 217.21L2.95319 217.213L2.93945 217.26C2.32598 219.359 1.43808 222.396 0.142206 226.812C-0.353542 228.501 0.482563 230.296 2.09478 231.003C3.70699 231.71 5.59352 231.109 6.50042 229.6C17.8921 210.647 26.8651 188.349 34.5232 164.679C34.5702 167.346 34.6774 169.942 34.8534 172.445C35.6044 183.127 37.6414 192.8 42.1832 198.913C44.5404 202.086 47.6517 204.404 51.6111 205.258C55.5095 206.098 59.8008 205.427 64.4035 203.471C73.4922 199.61 84.8009 190.306 98.9334 174.434L98.9386 174.428C105.629 166.88 112.635 158.723 119.706 150.242C115.459 162.853 113.208 173.757 112.557 182.937C111.576 196.759 114.197 207.211 119.76 213.42C125.595 219.933 133.964 221.034 142.229 217.486C150.316 214.015 158.452 206.126 165.255 194.358C166.09 192.914 165.789 191.081 164.537 189.979C163.284 188.877 161.427 188.812 160.101 189.825C150.633 197.052 143.798 200.443 139.148 201.298C136.889 201.714 135.368 201.489 134.34 201.036C133.35 200.599 132.49 199.809 131.782 198.443C130.256 195.501 129.702 190.372 130.499 183.112C131.279 176.004 133.286 167.418 136.267 158.009C142.226 139.202 151.948 117.511 162.939 98.5123C173.993 79.4044 186.073 63.473 196.597 55.7618C196.906 55.5353 197.175 55.2596 197.395 54.9457C200.421 50.6228 200.121 44.3077 195.517 40.6243C190.916 36.9436 184.539 37.964 181.016 42.3685C180.992 42.3989 180.968 42.4297 180.944 42.4609C163.057 66.4161 149.319 87.9304 139.006 106.993C134.775 111.565 130.33 116.407 125.789 121.354L125.777 121.367C112.491 135.84 98.39 151.2 86.2297 163.529C80.1485 169.694 74.5949 175.058 69.9011 179.155C65.0993 183.346 61.5203 185.918 59.3234 186.848L59.3006 186.858C58.2357 187.318 57.6477 187.299 57.3806 187.246C57.1553 187.2 56.8391 187.07 56.4196 186.56C55.4211 185.345 54.4619 182.729 53.9059 178.363C52.8223 169.854 53.5393 157.214 55.1083 143.691C58.2304 116.781 64.5592 87.661 65.3067 84.2225C65.3246 84.1403 65.3395 84.0574 65.3514 83.974C66.0375 79.1712 63.6459 74.3826 59.4624 72.2963C64.6138 51.8889 69.8086 32.1794 75.6925 14.2052C75.699 14.1854 75.7053 14.1656 75.7114 14.1457C77.4494 8.49723 74.4349 2.28312 68.6048 0.489245Z" fill="black"/>
<path fill-rule="evenodd" clip-rule="evenodd" d="M242.503 168.809C243.533 165.72 247.137 159.026 246.622 155.422C236.839 139.462 170.422 176.532 175.57 201.245C184.323 205.364 218.304 187.859 241.988 172.928C241.473 171.898 241.988 170.353 242.503 168.809ZM264.127 160.571L272.88 170.868C267.216 176.017 256.919 189.403 255.889 196.612C264.642 202.275 306.346 194.552 309.435 164.69C287.296 158.512 308.406 146.155 318.188 154.907C357.833 163.145 374.823 144.61 323.337 191.978C296.049 216.691 338.268 214.632 370.19 185.285C371.219 183.225 373.279 180.651 374.823 178.076C397.477 147.184 395.933 177.047 372.249 198.671C373.279 205.879 384.606 207.424 422.191 190.433L427.34 188.374C400.567 208.454 372.764 213.602 367.1 202.79C355.773 211.543 340.842 217.721 321.792 217.206C302.742 216.691 301.197 208.454 306.346 198.156C281.633 216.177 238.384 216.177 239.928 193.522C209.036 212.572 166.818 232.137 159.609 205.879C144.678 153.363 270.82 101.876 264.127 160.571ZM310.465 152.333C309.95 152.333 309.95 152.333 309.435 152.333H310.465ZM320.248 179.621C324.881 174.987 329.515 170.353 333.634 167.264C329.515 167.264 325.396 166.749 322.307 166.235C322.307 171.383 321.792 175.502 320.248 179.621Z" fill="black"/>
<path fill-rule="evenodd" clip-rule="evenodd" d="M387.18 151.818L384.091 149.759C385.121 146.67 386.15 147.185 386.15 145.64C384.091 144.61 385.635 145.125 381.516 144.61C373.279 138.947 380.487 138.432 385.121 132.768C390.269 132.254 394.903 135.858 395.418 141.006C396.448 146.67 392.329 151.304 387.18 151.818Z" fill="black"/>
</svg>
