<?xml version="1.0" encoding="utf-8"?>
<svg width="32" height="32" viewBox="0 0 32 32" fill="none" xmlns="http://www.w3.org/2000/svg">
<path d="M16 2C12.2878 2 8.72437 3.47591 6.10156 6.10047C3.47604 8.72607 2.00073 12.2869 2 16C2 19.7115 3.47656 23.275 6.10156 25.8995C8.72437 28.5241 12.2878 30 16 30C19.7122 30 23.2756 28.5241 25.8984 25.8995C28.5234 23.275 30 19.7115 30 16C30 12.2885 28.5234 8.72503 25.8984 6.10047C23.2756 3.47591 19.7122 2 16 2Z" fill="#000"/>
<path d="M8.96622 16.1091C12.5573 14.6415 14.9513 13.6739 16.1483 13.2064C19.57 11.8716 20.2802 11.6398 20.744 11.6319C20.846 11.6304 21.073 11.654 21.2212 11.7664C21.3444 11.8612 21.379 11.9894 21.3963 12.0794C21.4117 12.1693 21.4329 12.3743 21.4156 12.5342C21.2308 14.3615 20.4283 18.7956 20.0204 20.8422C19.8491 21.7081 19.5084 21.9984 19.1794 22.0268C18.4635 22.0885 17.9208 21.5833 17.228 21.1574C16.1445 20.4906 15.5325 20.0757 14.4798 19.4252C13.2636 18.6733 14.0526 18.26 14.7454 17.5847C14.9263 17.408 18.0786 14.7186 18.1382 14.4747C18.1459 14.4442 18.1536 14.3304 18.0805 14.2705C18.0093 14.2103 17.9034 14.2309 17.8265 14.2472C17.7168 14.2703 15.9867 15.3442 12.6304 17.4688C12.1397 17.7855 11.6951 17.9399 11.2948 17.9318C10.856 17.9229 10.0093 17.6985 9.37998 17.5067C8.61019 17.2715 7.99629 17.1471 8.05017 16.7475C8.07711 16.5395 8.3831 16.3266 8.96622 16.1091Z" fill="white"/>
<defs>
</defs>
</svg>
