<?xml version="1.0" encoding="utf-8"?>
<svg width="32" height="32" viewBox="0 0 32 32" fill="none" xmlns="http://www.w3.org/2000/svg">
<rect x="7" y="7" width="18" height="18" fill="white"/>
<path d="M16.0013 2.66675C23.3653 2.66675 29.3347 8.63608 29.3347 16.0001C29.3347 23.3641 23.3653 29.3334 16.0013 29.3334C13.645 29.3372 11.3302 28.7136 9.29465 27.5267L2.67332 29.3334L4.47599 22.7094C3.28811 20.6732 2.66405 18.3574 2.66799 16.0001C2.66799 8.63608 8.63732 2.66675 16.0013 2.66675ZM11.4573 9.73342L11.1907 9.74408C11.018 9.7546 10.8493 9.79995 10.6947 9.87741C10.55 9.95932 10.418 10.0617 10.3027 10.1814C10.1427 10.3321 10.052 10.4627 9.95465 10.5894C9.46148 11.2306 9.19595 12.0178 9.19999 12.8267C9.20265 13.4801 9.37332 14.1161 9.63999 14.7107C10.1853 15.9134 11.0827 17.1867 12.2667 18.3667C12.552 18.6507 12.832 18.9361 13.1333 19.2014C14.6045 20.4967 16.3577 21.4308 18.2533 21.9294L19.0107 22.0454C19.2573 22.0587 19.504 22.0401 19.752 22.0281C20.1403 22.008 20.5195 21.9029 20.8627 21.7201C21.0373 21.6301 21.2077 21.5323 21.3733 21.4267C21.3733 21.4267 21.4307 21.3894 21.54 21.3067C21.72 21.1734 21.8307 21.0787 21.98 20.9227C22.0907 20.8081 22.1867 20.6734 22.26 20.5201C22.364 20.3027 22.468 19.8881 22.5107 19.5427C22.5427 19.2787 22.5333 19.1347 22.5293 19.0454C22.524 18.9027 22.4053 18.7547 22.276 18.6921L21.5 18.3441C21.5 18.3441 20.34 17.8387 19.6307 17.5161C19.5564 17.4837 19.4769 17.4651 19.396 17.4614C19.3048 17.452 19.2126 17.4623 19.1257 17.4915C19.0387 17.5207 18.9591 17.5682 18.892 17.6307C18.8853 17.6281 18.796 17.7041 17.832 18.8721C17.7767 18.9464 17.7004 19.0026 17.6131 19.0335C17.5257 19.0644 17.4311 19.0685 17.3413 19.0454C17.2545 19.0221 17.1694 18.9927 17.0867 18.9574C16.9213 18.8881 16.864 18.8614 16.7507 18.8134C15.9854 18.4795 15.2769 18.0283 14.6507 17.4761C14.4827 17.3294 14.3267 17.1694 14.1667 17.0147C13.6421 16.5124 13.185 15.9441 12.8067 15.3241L12.728 15.1974C12.6715 15.1123 12.6258 15.0205 12.592 14.9241C12.5413 14.7281 12.6733 14.5707 12.6733 14.5707C12.6733 14.5707 12.9973 14.2161 13.148 14.0241C13.2947 13.8374 13.4187 13.6561 13.4987 13.5267C13.656 13.2734 13.7053 13.0134 13.6227 12.8121C13.2493 11.9001 12.8627 10.9921 12.4653 10.0907C12.3867 9.91208 12.1533 9.78408 11.9413 9.75875C11.8693 9.75075 11.7973 9.74275 11.7253 9.73741C11.5463 9.72852 11.3668 9.7303 11.188 9.74275L11.456 9.73208L11.4573 9.73342Z" fill="#000"/>
</svg>
